<svg xmlns="http://www.w3.org/2000/svg" width="1200" height="675" viewBox="0 0 1200 675" role="img" aria-labelledby="title desc">
  <title id="title">胶体量子点短波红外探测与成像</title>
  <desc id="desc">量子点材料、短波红外光谱、探测器像素阵列和应用场景的示意图</desc>
  <defs>
    <linearGradient id="bg" x1="0" x2="1" y1="0" y2="1">
      <stop offset="0" stop-color="#f8fbfa"/>
      <stop offset="1" stop-color="#eaf4f1"/>
    </linearGradient>
    <linearGradient id="swir" x1="0" x2="1">
      <stop offset="0" stop-color="#59b587"/>
      <stop offset="0.55" stop-color="#2f7f92"/>
      <stop offset="1" stop-color="#394f8a"/>
    </linearGradient>
    <filter id="shadow" x="-20%" y="-20%" width="140%" height="140%">
      <feDropShadow dx="0" dy="14" stdDeviation="18" flood-color="#23433d" flood-opacity="0.16"/>
    </filter>
  </defs>
  <rect width="1200" height="675" fill="url(#bg)"/>
  <rect x="70" y="78" width="1060" height="520" rx="28" fill="#fff" filter="url(#shadow)"/>
  <text x="105" y="144" font-family="Arial, 'Noto Sans CJK SC', sans-serif" font-size="44" font-weight="700" fill="#173a34">胶体量子点短波红外探测与成像</text>
  <text x="108" y="190" font-family="Arial, 'Noto Sans CJK SC', sans-serif" font-size="24" fill="#59706b">从材料带隙调控到读出电路集成的技术路线</text>
  <g transform="translate(120 260)">
    <circle cx="70" cy="60" r="18" fill="#3aa66f"/>
    <circle cx="122" cy="92" r="24" fill="#72c28d"/>
    <circle cx="175" cy="48" r="15" fill="#2f7f92"/>
    <circle cx="210" cy="110" r="20" fill="#9ad6a5"/>
    <circle cx="92" cy="145" r="13" fill="#476a9f"/>
    <circle cx="160" cy="156" r="22" fill="#5e8fb8"/>
    <path d="M86 67 L112 84 M140 84 L164 56 M184 62 L202 96 M106 137 L140 150" stroke="#7a8f8a" stroke-width="4" stroke-linecap="round"/>
    <text x="36" y="215" font-family="Arial, 'Noto Sans CJK SC', sans-serif" font-size="24" font-weight="700" fill="#173a34">CQD 材料</text>
  </g>
  <g transform="translate(430 270)">
    <rect x="0" y="48" width="320" height="34" rx="17" fill="url(#swir)"/>
    <line x1="0" y1="105" x2="320" y2="105" stroke="#8aa29b" stroke-width="3"/>
    <g font-family="Arial, 'Noto Sans CJK SC', sans-serif" font-size="19" fill="#445c57">
      <text x="-8" y="136">0.75</text>
      <text x="133" y="136">1.2</text>
      <text x="288" y="136">3 um</text>
    </g>
    <text x="83" y="35" font-family="Arial, 'Noto Sans CJK SC', sans-serif" font-size="26" font-weight="700" fill="#173a34">SWIR 响应窗口</text>
    <text x="60" y="180" font-family="Arial, 'Noto Sans CJK SC', sans-serif" font-size="22" fill="#59706b">尺寸调控 -> 带隙调控</text>
  </g>
  <g transform="translate(840 250)">
    <rect x="0" y="0" width="205" height="150" rx="18" fill="#eef7f4" stroke="#b9d7cf" stroke-width="3"/>
    <g fill="#315f75">
      <rect x="28" y="30" width="34" height="34" rx="5"/>
      <rect x="75" y="30" width="34" height="34" rx="5"/>
      <rect x="122" y="30" width="34" height="34" rx="5"/>
      <rect x="28" y="78" width="34" height="34" rx="5"/>
      <rect x="75" y="78" width="34" height="34" rx="5"/>
      <rect x="122" y="78" width="34" height="34" rx="5"/>
    </g>
    <path d="M178 21 L194 21 L194 131 L178 131" fill="none" stroke="#cf3d32" stroke-width="4"/>
    <text x="30" y="205" font-family="Arial, 'Noto Sans CJK SC', sans-serif" font-size="24" font-weight="700" fill="#173a34">成像阵列</text>
  </g>
  <g font-family="Arial, 'Noto Sans CJK SC', sans-serif" font-size="22" font-weight="700" fill="#cf3d32">
    <text x="165" y="545">材料</text>
    <text x="492" y="545">器件</text>
    <text x="807" y="545">系统</text>
  </g>
  <path d="M260 536 C350 500 410 500 480 536 S650 572 740 536 S870 500 965 536" fill="none" stroke="#cf3d32" stroke-width="5" stroke-linecap="round"/>
</svg>
